# xmcd CD database file
#
# Track frame offsets:
#	150
#	25118
#	41113
#
# Disc length: 879 seconds
#
# Revision: 1
# Processed by: cddbd v1.5.2PL0 Copyright (c) Steve Scherf et al.
# Submitted via: CDex 1.70beta3
#
DISCID=1d036d03
DTITLE=UVERworld - No1
DYEAR=2010
DGENRE=J-Rock
TTITLE0=No.1
TTITLE1=６つの風
TTITLE2=超大作＋81
EXTD=YEAR: 2010
EXTT0=
EXTT1=
EXTT2=
PLAYORDER=
